<svg width="136" height="40" viewBox="0 0 136 40" fill="none" xmlns="http://www.w3.org/2000/svg">
<path d="M130.803 0H5.0309C3.69662 0 2.41699 0.526142 1.47352 1.46268C0.530039 2.39922 0 3.66944 0 4.9939L0 34.9573C0 36.2818 0.530039 37.552 1.47352 38.4886C2.41699 39.4251 3.69662 39.9512 5.0309 39.9512H130.803C132.138 39.9512 133.417 39.4251 134.361 38.4886C135.304 37.552 135.834 36.2818 135.834 34.9573V4.9939C135.834 3.66944 135.304 2.39922 134.361 1.46268C133.417 0.526142 132.138 0 130.803 0Z" fill="black" style="fill:black;fill-opacity:1;"/>
<path d="M68.4159 21.702C67.5702 21.704 66.744 21.9557 66.0419 22.4253C65.3398 22.8949 64.7933 23.5613 64.4715 24.3402C64.1496 25.1192 64.0669 25.9757 64.2338 26.8015C64.4006 27.6272 64.8096 28.3852 65.409 28.9795C66.0083 29.5737 66.7711 29.9777 67.601 30.1402C68.4308 30.3027 69.2904 30.2164 70.071 29.8924C70.8516 29.5684 71.5183 29.021 71.9866 28.3197C72.455 27.6183 72.704 26.7943 72.7022 25.952C72.7106 25.3899 72.6053 24.8318 72.3926 24.311C72.1799 23.7903 71.8641 23.3175 71.464 22.9209C71.0639 22.5243 70.5878 22.212 70.064 22.0026C69.5401 21.7932 68.9802 21.691 68.4159 21.702ZM68.4159 28.532C67.8974 28.5681 67.38 28.448 66.9309 28.1874C66.4818 27.9267 66.1219 27.5376 65.8978 27.0704C65.6737 26.6033 65.596 26.0799 65.6746 25.5682C65.7532 25.0564 65.9845 24.5801 66.3385 24.201C66.6925 23.822 67.1528 23.5578 67.6596 23.4428C68.1664 23.3278 68.6962 23.3672 69.1801 23.5561C69.6641 23.7449 70.0798 24.0744 70.3732 24.5017C70.6667 24.929 70.8243 25.4343 70.8255 25.952C70.8416 26.28 70.7916 26.6079 70.6784 26.9163C70.5653 27.2247 70.3913 27.5075 70.1668 27.7479C69.9422 27.9883 69.6716 28.1816 69.3709 28.3162C69.0702 28.4509 68.7455 28.5243 68.4159 28.532ZM59.0584 21.702C58.2127 21.7042 57.3866 21.956 56.6846 22.4257C55.9827 22.8954 55.4363 23.5619 55.1146 24.3409C54.7929 25.1198 54.7103 25.9763 54.8773 26.802C55.0442 27.6277 55.4533 28.3856 56.0527 28.9798C56.6521 29.574 57.4149 29.9778 58.2447 30.1402C59.0745 30.3027 59.934 30.2164 60.7146 29.8923C61.4952 29.5682 62.1618 29.0209 62.6301 28.3196C63.0984 27.6182 63.3474 26.7943 63.3455 25.952C63.354 25.3899 63.2487 24.8318 63.036 24.311C62.8233 23.7903 62.5075 23.3175 62.1074 22.9209C61.7073 22.5243 61.2312 22.212 60.7073 22.0026C60.1835 21.7932 59.6227 21.691 59.0584 21.702ZM59.0584 28.532C58.5399 28.5681 58.0224 28.448 57.5734 28.1874C57.1243 27.9267 56.7643 27.5376 56.5403 27.0704C56.3162 26.6033 56.2384 26.0799 56.317 25.5682C56.3956 25.0564 56.627 24.5801 56.981 24.201C57.335 23.822 57.7953 23.5578 58.3021 23.4428C58.8089 23.3278 59.3387 23.3672 59.8226 23.5561C60.3066 23.7449 60.7223 24.0744 61.0157 24.5017C61.3092 24.929 61.4668 25.4343 61.468 25.952C61.4841 26.28 61.434 26.6079 61.3209 26.9163C61.2078 27.2247 61.0338 27.5075 60.8092 27.7479C60.5847 27.9883 60.3141 28.1816 60.0134 28.3162C59.7127 28.4509 59.388 28.5243 59.0584 28.532ZM47.9337 23.012V24.812H52.2711C52.2031 25.6598 51.8493 26.4598 51.2671 27.082C50.832 27.5236 50.3088 27.8692 49.7311 28.0966C49.1534 28.324 48.5342 28.428 47.9137 28.402C46.6355 28.402 45.4097 27.8963 44.5059 26.9961C43.6021 26.0959 43.0943 24.875 43.0943 23.602C43.0943 22.329 43.6021 21.1081 44.5059 20.2079C45.4097 19.3077 46.6355 18.802 47.9137 18.802C49.139 18.7839 50.3222 19.2473 51.2069 20.092L52.482 18.822C51.8836 18.2325 51.173 17.7679 50.3921 17.4554C49.6111 17.1429 48.7753 16.9887 47.9337 17.002C47.0393 16.9643 46.1464 17.1072 45.3088 17.4222C44.4712 17.7371 43.7063 18.2176 43.06 18.8346C42.4137 19.4517 41.8994 20.1925 41.5481 21.0127C41.1967 21.8329 41.0156 22.7153 41.0156 23.607C41.0156 24.4987 41.1967 25.3812 41.5481 26.2013C41.8994 27.0215 42.4137 27.7624 43.06 28.3794C43.7063 28.9964 44.4712 29.4769 45.3088 29.7918C46.1464 30.1068 47.0393 30.2497 47.9337 30.212C48.7924 30.246 49.6487 30.0988 50.4462 29.78C51.2438 29.4611 51.9646 28.9779 52.5614 28.362C53.6161 27.2086 54.1782 25.6913 54.1286 24.132C54.1319 23.7567 54.1013 23.3819 54.0373 23.012H47.9337ZM93.4262 24.412C93.1641 23.6449 92.6744 22.9751 92.0218 22.4912C91.3693 22.0073 90.5845 21.7321 89.7715 21.702C89.2223 21.7009 88.6787 21.8121 88.1744 22.0285C87.67 22.245 87.2156 22.5622 86.8392 22.9605C86.4627 23.3589 86.1724 23.8299 85.986 24.3444C85.7996 24.8589 85.7211 25.4061 85.7554 25.952C85.7468 26.8649 86.035 27.756 86.5768 28.4923C87.1187 29.2286 87.8851 29.7705 88.7617 30.0371C89.6383 30.3038 90.578 30.2808 91.4404 29.9717C92.3029 29.6626 93.0417 29.0839 93.5467 28.322L92.0908 27.322C91.8738 27.6825 91.5658 27.9801 91.1976 28.1854C90.8293 28.3906 90.4135 28.4963 89.9915 28.492C89.5565 28.5098 89.1262 28.3962 88.7572 28.1659C88.3882 27.9357 88.0978 27.5997 87.9241 27.202L93.637 24.852L93.4262 24.412ZM87.6028 25.832C87.5825 25.5214 87.6246 25.2098 87.7266 24.9156C87.8287 24.6214 87.9886 24.3504 88.1971 24.1185C88.4056 23.8866 88.6585 23.6985 88.9409 23.5652C89.2233 23.4319 89.5296 23.356 89.8418 23.342C90.1653 23.3223 90.4875 23.3982 90.7679 23.5601C91.0483 23.7219 91.2745 23.9626 91.4181 24.252L87.6028 25.832ZM82.9642 29.952H84.8418V17.452H82.9642V29.952ZM79.8919 22.652H79.8216C79.5365 22.3429 79.1883 22.0983 78.8004 21.9344C78.4125 21.7705 77.9938 21.6913 77.5726 21.702C76.4754 21.755 75.4407 22.2264 74.683 23.0186C73.9253 23.8107 73.5026 24.8629 73.5026 25.957C73.5026 27.0511 73.9253 28.1033 74.683 28.8954C75.4407 29.6876 76.4754 30.159 77.5726 30.212C77.9983 30.2205 78.4206 30.1353 78.8094 29.9624C79.1981 29.7896 79.5438 29.5333 79.8216 29.212H79.8919V29.822C79.8919 31.452 79.0184 32.322 77.6128 32.322C77.1432 32.3117 76.6873 32.1627 76.303 31.8938C75.9186 31.625 75.6232 31.2484 75.4541 30.812L73.8276 31.482C74.1283 32.2343 74.6511 32.8779 75.327 33.3278C76.0029 33.7778 76.7999 34.0129 77.6128 34.002C79.8116 34.002 81.6289 32.712 81.6289 29.572V21.952H79.8919V22.652ZM77.7333 28.532C77.0728 28.4949 76.4516 28.2074 75.9972 27.7286C75.5427 27.2498 75.2896 26.6159 75.2896 25.957C75.2896 25.2981 75.5427 24.6642 75.9972 24.1854C76.4516 23.7066 77.0728 23.4191 77.7333 23.382C78.0548 23.3958 78.3702 23.4739 78.6608 23.6116C78.9514 23.7494 79.2113 23.9439 79.4248 24.1837C79.6384 24.4235 79.8014 24.7036 79.904 25.0074C80.0067 25.3111 80.047 25.6324 80.0224 25.952C80.0498 26.2727 80.0116 26.5956 79.9101 26.9012C79.8087 27.2067 79.646 27.4886 79.432 27.7298C79.2181 27.971 78.9572 28.1664 78.6652 28.3043C78.3732 28.4422 78.0562 28.5196 77.7333 28.532ZM102.221 17.452H97.7225V29.952H99.6V25.212H102.221C102.755 25.2484 103.29 25.1751 103.795 24.9966C104.299 24.8181 104.761 24.5383 105.152 24.1744C105.544 23.8106 105.856 23.3705 106.069 22.8815C106.282 22.3925 106.392 21.8651 106.392 21.332C106.392 20.7989 106.282 20.2715 106.069 19.7825C105.856 19.2935 105.544 18.8535 105.152 18.4896C104.761 18.1257 104.299 17.8459 103.795 17.6674C103.29 17.4889 102.755 17.4156 102.221 17.452ZM102.221 23.452H99.6V19.192H102.261C102.686 19.1913 103.102 19.3164 103.455 19.5514C103.809 19.7864 104.085 20.1208 104.248 20.5121C104.41 20.9033 104.453 21.3339 104.369 21.7492C104.286 22.1645 104.081 22.5458 103.78 22.8447C103.377 23.2465 102.83 23.472 102.261 23.472L102.221 23.452ZM113.807 21.662C113.123 21.6203 112.442 21.7789 111.848 22.1183C111.254 22.4578 110.773 22.9631 110.464 23.572L112.12 24.262C112.287 23.9611 112.538 23.7149 112.843 23.5534C113.148 23.3919 113.493 23.3219 113.837 23.352C114.076 23.324 114.317 23.3437 114.548 23.4098C114.778 23.4759 114.994 23.5872 115.181 23.7371C115.368 23.887 115.523 24.0726 115.637 24.2829C115.751 24.4932 115.822 24.7241 115.845 24.962V25.082C115.241 24.766 114.569 24.6012 113.887 24.602C112.1 24.602 110.273 25.602 110.273 27.422C110.29 27.8089 110.385 28.1885 110.553 28.5379C110.721 28.8873 110.958 29.1994 111.249 29.4556C111.541 29.7123 111.881 29.908 112.249 30.0311C112.618 30.1542 113.008 30.2021 113.395 30.172C113.867 30.1982 114.336 30.0991 114.756 29.8847C115.176 29.6702 115.531 29.3483 115.785 28.952H115.845V29.952H117.652V25.142C117.652 22.952 115.986 21.682 113.847 21.682L113.807 21.662ZM113.576 28.512C112.964 28.512 112.11 28.202 112.11 27.452C112.11 26.452 113.174 26.112 114.118 26.112C114.715 26.0974 115.304 26.2425 115.825 26.532C115.762 27.0751 115.504 27.577 115.097 27.9447C114.691 28.3125 114.165 28.5211 113.616 28.532L113.576 28.512ZM124.239 21.952L122.09 27.372H122.03L119.801 21.952H117.793L121.136 29.532L119.229 33.742H121.237L126.327 21.952H124.239ZM107.371 29.952H109.239V17.452H107.371V29.952Z" fill="white" style="fill:white;fill-opacity:1;"/>
<path d="M10.4781 7.49187C10.1581 7.88593 10.0002 8.38631 10.0363 8.89187V31.0119C10.0022 31.5223 10.1718 32.0254 10.5082 32.4119L10.5785 32.4919L22.9883 20.1019V19.8019L10.5484 7.42188L10.4781 7.49187Z" fill="url(#paint0_linear_17927_131013)"/>
<path d="M27.1087 24.2319L22.9922 20.1019V19.8019L27.1087 15.6719L27.1991 15.7319L32.1279 18.5119C33.5336 19.3019 33.5336 20.6019 32.1279 21.4019L27.2191 24.1819L27.1087 24.2319Z" fill="url(#paint1_linear_17927_131013)"/>
<path d="M27.2315 24.1731L22.9945 19.9531L10.4844 32.4131C10.7681 32.6647 11.1312 32.8094 11.5108 32.8221C11.8905 32.8349 12.2626 32.715 12.5627 32.4831L27.2315 24.1731Z" fill="url(#paint2_linear_17927_131013)"/>
<path d="M27.2325 15.7297L12.5627 7.42968C12.2645 7.19459 11.8927 7.07173 11.5126 7.08271C11.1324 7.09368 10.7684 7.23778 10.4844 7.48968L22.9955 19.9497L27.2325 15.7297Z" fill="url(#paint3_linear_17927_131013)"/>
<path opacity="0.2" d="M27.1111 24.082L12.5618 32.332C12.2726 32.5494 11.9201 32.667 11.5578 32.667C11.1954 32.667 10.843 32.5494 10.5537 32.332L10.4844 32.402L10.5547 32.482C10.8439 32.6994 11.1963 32.817 11.5587 32.817C11.921 32.817 12.2735 32.6994 12.5627 32.482L27.2306 24.172L27.1111 24.082Z" fill="black" style="fill:black;fill-opacity:1;"/>
<path opacity="0.12" d="M10.4788 32.2731C10.1563 31.8765 9.99824 31.372 10.037 30.8631V31.0131C10.0027 31.5235 10.1724 32.0267 10.5089 32.4131L10.5792 32.3431L10.4788 32.2731ZM32.1256 21.2531L27.1055 24.0831L27.1967 24.1731L32.1256 21.3931C32.4166 21.2706 32.669 21.0721 32.8563 20.8187C33.0436 20.5653 33.1588 20.2663 33.1899 19.9531C33.1271 20.2377 32.9981 20.5036 32.8132 20.7294C32.6284 20.9552 32.3928 21.1346 32.1256 21.2531Z" fill="black" style="fill:black;fill-opacity:1;"/>
<path opacity="0.25" d="M12.5592 7.57017L32.1277 18.6502C32.3948 18.7688 32.6303 18.9482 32.8152 19.174C33 19.3998 33.1291 19.6656 33.1919 19.9502C33.1609 19.637 33.0457 19.338 32.8584 19.0846C32.6711 18.8312 32.4186 18.6327 32.1277 18.5102L12.5592 7.43017C11.1636 6.63017 10.0391 7.29017 10.0391 8.89017V9.04108C10.0391 7.44108 11.1636 6.78108 12.5592 7.57108V7.57017Z" fill="white" style="fill:white;fill-opacity:1;"/>
<path d="M42.2789 14.2225H41.5469V12.2225H42.1694C42.4494 11.9196 42.6601 11.5598 42.7866 11.1678C42.9132 10.7758 42.9527 10.3612 42.9023 9.95249V6.95249H46.9184V12.2125H47.5911V14.2125H46.8481V12.9525H42.2789V14.2225ZM43.6754 9.95249C43.7202 10.7558 43.5208 11.5538 43.1031 12.2425H46.1152V7.69249H43.6754V9.95249ZM53.6253 12.1725C53.3353 12.4614 52.9909 12.6906 52.6119 12.847C52.2329 13.0034 51.8267 13.0839 51.4165 13.0839C51.0062 13.0839 50.6 13.0034 50.221 12.847C49.842 12.6906 49.4976 12.4614 49.2076 12.1725C48.9193 11.8797 48.6927 11.5325 48.5409 11.1513C48.3892 10.77 48.3155 10.3625 48.3241 9.95249C48.3141 9.54319 48.3862 9.13602 48.5362 8.75483C48.6862 8.37363 48.911 8.02607 49.1976 7.73249C49.4875 7.44332 49.8318 7.21391 50.2108 7.0574C50.5898 6.90088 50.9961 6.82031 51.4064 6.82031C51.8167 6.82031 52.223 6.90088 52.602 7.0574C52.981 7.21391 53.3254 7.44332 53.6153 7.73249C53.9071 8.02365 54.1375 8.37011 54.2927 8.7514C54.4479 9.1327 54.5248 9.54109 54.5189 9.95249C54.5309 10.3638 54.4578 10.7732 54.3041 11.1551C54.1503 11.537 53.9193 11.8834 53.6253 12.1725ZM49.7799 11.6725C49.9915 11.8913 50.2459 12.0646 50.5274 12.1816C50.8089 12.2985 51.1115 12.3567 51.4165 12.3525C51.7217 12.3585 52.0249 12.3012 52.3066 12.1841C52.5884 12.067 52.8426 11.8928 53.053 11.6725C53.2774 11.4469 53.4528 11.1778 53.5685 10.882C53.6842 10.5861 53.7377 10.2698 53.7257 9.95249C53.7378 9.63519 53.6844 9.31879 53.5687 9.02292C53.453 8.72705 53.2774 8.45801 53.053 8.23249C52.8425 8.01224 52.5883 7.83803 52.3066 7.72096C52.0248 7.60389 51.7217 7.54652 51.4165 7.55249C51.1115 7.54827 50.8089 7.60645 50.5274 7.72341C50.2459 7.84038 49.9915 8.01364 49.7799 8.23249C49.5588 8.45994 49.3862 8.72955 49.2723 9.02511C49.1584 9.32068 49.1057 9.63612 49.1172 9.95249C49.1057 10.2689 49.1584 10.5843 49.2723 10.8799C49.3862 11.1754 49.5588 11.445 49.7799 11.6725ZM58.4145 13.0825C58 13.0909 57.588 13.0157 57.2034 12.8613C56.8189 12.7068 56.4697 12.4764 56.177 12.1839C55.8842 11.8915 55.654 11.5429 55.5002 11.1594C55.3464 10.7759 55.2721 10.3654 55.282 9.95249C55.2737 9.5342 55.3534 9.11883 55.516 8.73305C55.6785 8.34728 55.9203 7.99964 56.2257 7.71249C56.5161 7.41983 56.8639 7.18979 57.2473 7.03668C57.6308 6.88357 58.0417 6.81066 58.4547 6.82249C58.875 6.81064 59.2925 6.89457 59.6753 7.06788C60.0581 7.24118 60.3961 7.49928 60.6635 7.82249L60.1314 8.34249C59.9342 8.0899 59.6789 7.88815 59.3872 7.75416C59.0954 7.62018 58.7756 7.55787 58.4547 7.57249C58.1456 7.56463 57.8382 7.62005 57.5516 7.73529C57.2649 7.85054 57.005 8.02317 56.788 8.24249C56.5574 8.46325 56.3751 8.72911 56.2526 9.02338C56.1301 9.31765 56.07 9.63397 56.0761 9.95249C56.0556 10.427 56.1825 10.8963 56.4394 11.2965C56.6963 11.6966 57.0708 12.0082 57.5118 12.1888C57.7984 12.3052 58.1051 12.3607 58.4154 12.3525C58.7655 12.3509 59.1109 12.2721 59.4267 12.1216C59.7425 11.9712 60.0209 11.7529 60.2419 11.4825L60.784 12.0125C60.509 12.3408 60.1667 12.6067 59.78 12.7925C59.3528 12.9916 58.8855 13.0907 58.4145 13.0825ZM63.9376 12.9525H63.1627V7.69249H61.4768V6.95249H65.6125V7.69249H63.9358V12.9525H63.9376ZM70.9347 6.95249L68.6556 12.0125C68.6002 12.2153 68.5012 12.4036 68.3655 12.5646C68.2298 12.7255 68.0606 12.8552 67.8696 12.9446C67.6787 13.034 67.4705 13.081 67.2595 13.0823C67.0485 13.0837 66.8397 13.0394 66.6475 12.9525L66.8483 12.2425C66.9712 12.3112 67.1091 12.349 67.25 12.3525C67.3985 12.3599 67.5458 12.3215 67.6716 12.2425C67.794 12.1416 67.8871 12.0107 67.9427 11.8625L68.1636 11.3825L66.1355 6.95249H67.0492L68.5351 10.3925L70.0211 6.95249H70.9347ZM71.8082 12.9525V6.95249H76.1657V12.9525H75.3926V7.69249H72.5813V12.9525H71.8082ZM77.5412 12.9525V6.95249H78.3143V9.52249H81.3264V6.95249H82.1096V12.9525H81.3264V10.2425H78.3143V12.9525H77.5412ZM88.4148 12.1725C88.0512 12.5348 87.6034 12.802 87.1111 12.9503C86.6188 13.0987 86.0974 13.1236 85.5931 13.0228C85.0888 12.9221 84.6173 12.6988 84.2206 12.3728C83.8238 12.0468 83.5141 11.6282 83.3189 11.1543C83.1652 10.7726 83.0919 10.3636 83.1035 9.95249C83.0918 9.54113 83.1651 9.13176 83.319 8.74985C83.4729 8.36793 83.704 8.02163 83.998 7.73249C84.2872 7.44387 84.6306 7.21489 85.0087 7.05865C85.3868 6.90242 85.7921 6.822 86.2014 6.822C86.6108 6.822 87.0161 6.90242 87.3942 7.05865C87.7723 7.21489 88.1157 7.44387 88.4048 7.73249C88.6988 8.02163 88.9299 8.36793 89.0838 8.74985C89.2377 9.13176 89.3111 9.54113 89.2993 9.95249C89.3124 10.3631 89.2406 10.7721 89.0885 11.1539C88.9363 11.5358 88.707 11.8825 88.4148 12.1725ZM84.5694 11.6725C84.7798 11.8929 85.034 12.0672 85.3158 12.1842C85.5975 12.3013 85.9007 12.3586 86.206 12.3525C86.511 12.3568 86.8136 12.2987 87.0951 12.1817C87.3767 12.0647 87.6311 11.8914 87.8425 11.6725C88.0636 11.445 88.2362 11.1754 88.3501 10.8798C88.464 10.5843 88.5167 10.2688 88.5052 9.95249C88.5168 9.63612 88.464 9.32068 88.3502 9.02511C88.2363 8.72955 88.0636 8.45994 87.8425 8.23249C87.631 8.01364 87.3766 7.84038 87.0951 7.72341C86.8136 7.60645 86.511 7.54827 86.206 7.55249C85.9008 7.54652 85.5976 7.60389 85.3159 7.72096C85.0341 7.83803 84.7799 8.01224 84.5694 8.23249C84.3451 8.45808 84.1696 8.72713 84.0539 9.02298C83.9382 9.31884 83.8847 9.6352 83.8967 9.95249C83.8846 10.2698 83.9381 10.5862 84.0538 10.882C84.1695 11.1779 84.345 11.447 84.5694 11.6725ZM92.4611 12.9525V6.95249H94.6398C95.0915 6.94797 95.5285 7.11208 95.8647 7.41249C96.0325 7.55746 96.1663 7.73742 96.2565 7.93961C96.3467 8.14179 96.3912 8.36127 96.3868 8.58249C96.3886 8.85158 96.312 9.11612 96.1659 9.34249C96.0177 9.55737 95.8127 9.72726 95.5736 9.8334C95.862 9.92885 96.1139 10.1098 96.2965 10.3525C96.4881 10.5943 96.5904 10.8943 96.5876 11.2025C96.5924 11.433 96.5464 11.6617 96.4527 11.8725C96.359 12.0833 96.22 12.2711 96.0454 12.4225C95.6971 12.7457 95.2363 12.9217 94.7603 12.9134L92.4611 12.9525ZM93.2342 9.52249H94.6398C94.7713 9.5302 94.9029 9.50811 95.0247 9.45788C95.1464 9.40765 95.2551 9.33059 95.3426 9.23249C95.5126 9.06609 95.6099 8.83979 95.6137 8.60249C95.6228 8.3643 95.5407 8.13158 95.3828 7.95249C95.298 7.85968 95.1939 7.78651 95.0776 7.73813C94.9614 7.68975 94.836 7.66734 94.7101 7.67249H93.2342V9.52249ZM93.2342 12.2134H94.7904C94.9281 12.219 95.0653 12.194 95.1921 12.1402C95.3188 12.0865 95.432 12.0052 95.5234 11.9025C95.6967 11.7181 95.7936 11.4751 95.7944 11.2225C95.7898 11.0275 95.7283 10.838 95.6172 10.6774C95.5061 10.5167 95.3505 10.3918 95.1692 10.3179C95.0397 10.2645 94.9004 10.2388 94.7603 10.2425H93.2342V12.2125V12.2134Z" fill="white" stroke="white" style="fill:white;fill-opacity:1;stroke:white;stroke-opacity:1;" stroke-width="0.200244" stroke-miterlimit="10"/>
<defs>
<linearGradient id="paint0_linear_17927_131013" x1="21.8838" y1="8.66188" x2="5.10398" y2="25.5093" gradientUnits="userSpaceOnUse">
<stop stop-color="#479EF8" style="stop-color:#479EF8;stop-color:color(display-p3 0.2784 0.6196 0.9725);stop-opacity:1;"/>
<stop offset="0.01" stop-color="#479FF8" style="stop-color:#479FF8;stop-color:color(display-p3 0.2784 0.6235 0.9725);stop-opacity:1;"/>
<stop offset="0.26" stop-color="#55BBF9" style="stop-color:#55BBF9;stop-color:color(display-p3 0.3333 0.7333 0.9765);stop-opacity:1;"/>
<stop offset="0.51" stop-color="#5FCFFA" style="stop-color:#5FCFFA;stop-color:color(display-p3 0.3725 0.8118 0.9804);stop-opacity:1;"/>
<stop offset="0.76" stop-color="#65DCFB" style="stop-color:#65DCFB;stop-color:color(display-p3 0.3961 0.8627 0.9843);stop-opacity:1;"/>
<stop offset="1" stop-color="#67E0FB" style="stop-color:#67E0FB;stop-color:color(display-p3 0.4039 0.8784 0.9843);stop-opacity:1;"/>
</linearGradient>
<linearGradient id="paint1_linear_17927_131013" x1="33.9662" y1="19.9519" x2="9.67879" y2="19.9519" gradientUnits="userSpaceOnUse">
<stop stop-color="#FAE14B" style="stop-color:#FAE14B;stop-color:color(display-p3 0.9804 0.8824 0.2941);stop-opacity:1;"/>
<stop offset="0.41" stop-color="#F5C042" style="stop-color:#F5C042;stop-color:color(display-p3 0.9608 0.7529 0.2588);stop-opacity:1;"/>
<stop offset="0.78" stop-color="#F2A93B" style="stop-color:#F2A93B;stop-color:color(display-p3 0.9490 0.6627 0.2314);stop-opacity:1;"/>
<stop offset="1" stop-color="#F1A139" style="stop-color:#F1A139;stop-color:color(display-p3 0.9451 0.6314 0.2235);stop-opacity:1;"/>
</linearGradient>
<linearGradient id="paint2_linear_17927_131013" x1="24.9323" y1="22.2531" x2="2.17246" y2="45.0946" gradientUnits="userSpaceOnUse">
<stop stop-color="#EB4D4C" style="stop-color:#EB4D4C;stop-color:color(display-p3 0.9216 0.3020 0.2980);stop-opacity:1;"/>
<stop offset="1" stop-color="#B32A62" style="stop-color:#B32A62;stop-color:color(display-p3 0.7020 0.1647 0.3843);stop-opacity:1;"/>
</linearGradient>
<linearGradient id="paint3_linear_17927_131013" x1="7.33264" y1="0.129676" x2="17.4926" y2="10.3305" gradientUnits="userSpaceOnUse">
<stop stop-color="#549E75" style="stop-color:#549E75;stop-color:color(display-p3 0.3294 0.6196 0.4588);stop-opacity:1;"/>
<stop offset="0.07" stop-color="#55A575" style="stop-color:#55A575;stop-color:color(display-p3 0.3333 0.6471 0.4588);stop-opacity:1;"/>
<stop offset="0.48" stop-color="#60CC7D" style="stop-color:#60CC7D;stop-color:color(display-p3 0.3765 0.8000 0.4902);stop-opacity:1;"/>
<stop offset="0.8" stop-color="#6AE481" style="stop-color:#6AE481;stop-color:color(display-p3 0.4157 0.8941 0.5059);stop-opacity:1;"/>
<stop offset="1" stop-color="#6EEC83" style="stop-color:#6EEC83;stop-color:color(display-p3 0.4314 0.9255 0.5137);stop-opacity:1;"/>
</linearGradient>
</defs>
</svg>
